# xmcd
#
# Track frame offsets: 
#        150
#        14985
#        37500
#        57160
#        78787
#        93400
#        112695
#        134005
#        153152
#        168795
#
# Disc length: 2512 seconds
#
# Revision: 0
# Processed by: cddbd v1.5.1PL0 Copyright (c) Steve Scherf et al.
# Submitted via: ExactAudioCopy v0.95a5
#
DISCID=6a09ce0a
DTITLE=Joe Beard - No More Cherry Rose
DYEAR=1991
DGENRE=Blues
TTITLE0=When I Get Drunk
TTITLE1=Cancel My Reservation
TTITLE2=Something's On My Baby's Mind
TTITLE3=Heaven Of My Own
TTITLE4=Let Me Love You
TTITLE5=Highway 49
TTITLE6=No More Cherry Rose
TTITLE7=Have You Ever Wanted Someone
TTITLE8=Papa's Little Angel
TTITLE9=New York Woman
EXTD=
EXTT0=
EXTT1=
EXTT2=
EXTT3=
EXTT4=
EXTT5=
EXTT6=
EXTT7=
EXTT8=
EXTT9=
PLAYORDER=
